<svg width="32" height="32" viewBox="0 0 32 32" fill="none" xmlns="http://www.w3.org/2000/svg">
<g id="delete_FILL0_wght300_GRAD0_opsz24 (5) 1">
<rect width="32" height="32" rx="8" fill="#FF2E2E" fill-opacity="0.1"/>
<path id="Vector" d="M11.8077 24.8846C11.3026 24.8846 10.875 24.7096 10.525 24.3596C10.175 24.0096 10 23.582 10 23.0769V10.3846H9.75C9.53718 10.3846 9.35898 10.3128 9.2154 10.1692C9.0718 10.0256 9 9.84742 9 9.6346C9 9.42178 9.0718 9.24358 9.2154 9.1C9.35898 8.9564 9.53718 8.8846 9.75 8.8846H13.5C13.5 8.63333 13.5878 8.42308 13.7634 8.25385C13.9391 8.08462 14.1525 8 14.4038 8H18.5961C18.8474 8 19.0609 8.08462 19.2365 8.25385C19.4122 8.42308 19.5 8.63333 19.5 8.8846H23.25C23.4628 8.8846 23.641 8.9564 23.7845 9.1C23.9281 9.24358 24 9.42178 24 9.6346C24 9.84742 23.9281 10.0256 23.7845 10.1692C23.641 10.3128 23.4628 10.3846 23.25 10.3846H23V23.0769C23 23.582 22.825 24.0096 22.475 24.3596C22.125 24.7096 21.6974 24.8846 21.1922 24.8846H11.8077ZM11.5 10.3846V23.0769C11.5 23.1666 11.5288 23.2403 11.5865 23.298C11.6442 23.3557 11.7179 23.3846 11.8077 23.3846H21.1922C21.282 23.3846 21.3557 23.3557 21.4134 23.298C21.4711 23.2403 21.5 23.1666 21.5 23.0769V10.3846H11.5ZM13.9039 20.6346C13.9039 20.8474 13.9756 21.0256 14.1192 21.1692C14.2628 21.3128 14.441 21.3846 14.6538 21.3846C14.8666 21.3846 15.0448 21.3128 15.1884 21.1692C15.332 21.0256 15.4038 20.8474 15.4038 20.6346V13.1346C15.4038 12.9217 15.332 12.7435 15.1884 12.5999C15.0448 12.4564 14.8666 12.3846 14.6538 12.3846C14.441 12.3846 14.2628 12.4564 14.1192 12.5999C13.9756 12.7435 13.9039 12.9217 13.9039 13.1346V20.6346ZM17.5961 20.6346C17.5961 20.8474 17.6679 21.0256 17.8115 21.1692C17.9551 21.3128 18.1333 21.3846 18.3461 21.3846C18.5589 21.3846 18.7371 21.3128 18.8807 21.1692C19.0243 21.0256 19.0961 20.8474 19.0961 20.6346V13.1346C19.0961 12.9217 19.0243 12.7435 18.8807 12.5999C18.7371 12.4564 18.5589 12.3846 18.3461 12.3846C18.1333 12.3846 17.9551 12.4564 17.8115 12.5999C17.6679 12.7435 17.5961 12.9217 17.5961 13.1346V20.6346ZM11.5 10.3846V23.0769C11.5 23.1666 11.5288 23.2403 11.5865 23.298C11.6442 23.3557 11.7179 23.3846 11.8077 23.3846H11.5V10.3846Z" fill="#FF2E2E"/>
</g>
</svg>
