<svg width="24" height="24" viewBox="0 0 24 24" fill="none" xmlns="http://www.w3.org/2000/svg">
<g id="edit_FILL0_wght300_GRAD0_opsz24 (5) 1">
<path id="Vector" d="M5.15382 19H6.39034L15.65 9.74035L14.4135 8.5038L5.15382 17.7635V19ZM18.8576 8.65575L15.4827 5.31158L16.7961 3.99812C17.0833 3.71096 17.4372 3.56738 17.8577 3.56738C18.2782 3.56738 18.632 3.71096 18.9192 3.99812L20.1557 5.23465C20.4429 5.52182 20.5916 5.87053 20.6018 6.28078C20.6121 6.69103 20.4736 7.03973 20.1865 7.3269L18.8576 8.65575ZM4.55769 20.5C4.30001 20.5 4.08495 20.4138 3.91252 20.2413C3.74009 20.0689 3.65387 19.8538 3.65387 19.5961V17.502C3.65387 17.3814 3.67566 17.2667 3.71924 17.1577C3.76283 17.0487 3.83142 16.9475 3.92502 16.8539L14.3981 6.38078L17.773 9.75573L7.29994 20.2288C7.20636 20.3224 7.10509 20.391 6.99612 20.4346C6.88714 20.4782 6.77239 20.5 6.65187 20.5H4.55769ZM15.0269 9.11727L14.4135 8.5038L15.65 9.74035L15.0269 9.11727Z" fill="#92A5B4"/>
</g>
</svg>
