<svg width="32" height="32" viewBox="0 0 32 32" fill="none" xmlns="http://www.w3.org/2000/svg">
<g id="edit_FILL0_wght300_GRAD0_opsz24 (5) 1">
<rect width="32" height="32" rx="8" fill="#F4F9FB"/>
<path id="Vector" d="M9.49995 23.4326H10.7365L19.9962 14.173L18.7596 12.9364L9.49995 22.1961V23.4326ZM23.2038 13.0884L19.8288 9.7442L21.1423 8.43075C21.4295 8.14358 21.7833 8 22.2038 8C22.6243 8 22.9781 8.14358 23.2653 8.43075L24.5018 9.66727C24.789 9.95444 24.9377 10.3032 24.948 10.7134C24.9582 11.1237 24.8198 11.4724 24.5326 11.7595L23.2038 13.0884ZM8.90382 24.9326C8.64614 24.9326 8.43108 24.8464 8.25865 24.6739C8.08622 24.5015 8 24.2864 8 24.0288V21.9346C8 21.8141 8.02179 21.6993 8.06537 21.5904C8.10896 21.4814 8.17755 21.3801 8.27115 21.2865L18.7442 10.8134L22.1192 14.1884L11.6461 24.6614C11.5525 24.755 11.4512 24.8236 11.3423 24.8672C11.2333 24.9108 11.1185 24.9326 10.998 24.9326H8.90382ZM19.3731 13.5499L18.7596 12.9364L19.9962 14.173L19.3731 13.5499Z" fill="#0098C7"/>
</g>
</svg>
