<svg width="24" height="24" viewBox="0 0 24 24" fill="none" xmlns="http://www.w3.org/2000/svg">
<g id="edit_FILL0_wght300_GRAD0_opsz24 (6) 1">
<path id="Vector" d="M5.15425 19H6.39077L15.6504 9.74036L14.4139 8.50381L5.15425 17.7635V19ZM18.858 8.65576L15.4831 5.31158L16.7966 3.99813C17.0838 3.71097 17.4376 3.56738 17.8581 3.56738C18.2786 3.56738 18.6324 3.71097 18.9196 3.99813L20.1561 5.23466C20.4433 5.52182 20.592 5.87053 20.6023 6.28078C20.6125 6.69103 20.4741 7.03974 20.1869 7.32691L18.858 8.65576ZM4.55812 20.5C4.30044 20.5 4.08538 20.4138 3.91295 20.2413C3.74051 20.0689 3.6543 19.8538 3.6543 19.5961V17.502C3.6543 17.3814 3.67609 17.2667 3.71967 17.1577C3.76325 17.0488 3.83185 16.9475 3.92545 16.8539L14.3985 6.38078L17.7735 9.75573L7.30037 20.2288C7.20679 20.3224 7.10551 20.391 6.99655 20.4346C6.88756 20.4782 6.77281 20.5 6.6523 20.5H4.55812ZM15.0274 9.11728L14.4139 8.50381L15.6504 9.74036L15.0274 9.11728Z" fill="white"/>
</g>
</svg>
