<svg width="25" height="24" viewBox="0 0 25 24" fill="none" xmlns="http://www.w3.org/2000/svg">
<g id="add_FILL0_wght300_GRAD0_opsz24 (2) 1">
<path id="Vector" d="M12.4997 18.75C12.2871 18.75 12.109 18.6781 11.9654 18.5344C11.8218 18.3906 11.75 18.2125 11.75 18V12.75H6.50001C6.28751 12.75 6.10939 12.6781 5.96566 12.5343C5.82191 12.3905 5.75003 12.2123 5.75003 11.9997C5.75003 11.7871 5.82191 11.609 5.96566 11.4654C6.10939 11.3218 6.28751 11.25 6.50001 11.25H11.75V6.00001C11.75 5.78751 11.8219 5.60938 11.9657 5.46563C12.1095 5.3219 12.2877 5.25003 12.5003 5.25003C12.7129 5.25003 12.891 5.3219 13.0346 5.46563C13.1782 5.60938 13.25 5.78751 13.25 6.00001V11.25H18.5C18.7125 11.25 18.8906 11.3219 19.0344 11.4657C19.1781 11.6095 19.25 11.7877 19.25 12.0003C19.25 12.2129 19.1781 12.391 19.0344 12.5346C18.8906 12.6782 18.7125 12.75 18.5 12.75H13.25V18C13.25 18.2125 13.1781 18.3906 13.0343 18.5344C12.8905 18.6781 12.7123 18.75 12.4997 18.75Z" fill="white"/>
</g>
</svg>
